<?xml version="1.0" encoding="UTF-8" standalone="no"?>
<svg
   width="640"
   height="600"
   fill="none"
   viewBox="0 0 640 600"
   version="1.1"
   id="svg282"
   sodipodi:docname="HEROIMG.svg"
   inkscape:export-filename="C:\Users\MD ARSALAN\Downloads\752cb6ca40d99602 (1).png"
   inkscape:export-xdpi="883.78998"
   inkscape:export-ydpi="883.78998"
   inkscape:version="1.1.1 (3bf5ae0d25, 2021-09-20)"
   xmlns:inkscape="http://www.inkscape.org/namespaces/inkscape"
   xmlns:sodipodi="http://sodipodi.sourceforge.net/DTD/sodipodi-0.dtd"
   xmlns:xlink="http://www.w3.org/1999/xlink"
   xmlns="http://www.w3.org/2000/svg"
   xmlns:svg="http://www.w3.org/2000/svg">
  <defs
     id="defs286">
    <linearGradient
       inkscape:collect="always"
       id="linearGradient13339">
      <stop
         style="stop-color:#0f1012;stop-opacity:1;"
         offset="0"
         id="stop13335" />
      <stop
         style="stop-color:#0f1012;stop-opacity:0;"
         offset="1"
         id="stop13337" />
    </linearGradient>
    <filter
       inkscape:collect="always"
       style="color-interpolation-filters:sRGB"
       id="filter9641"
       x="-0.084893278"
       y="-0.34438551"
       width="1.1697866"
       height="1.688771">
      <feGaussianBlur
         inkscape:collect="always"
         stdDeviation="1.6082384"
         id="feGaussianBlur9643" />
    </filter>
    <linearGradient
       inkscape:collect="always"
       xlink:href="#linearGradient13339"
       id="linearGradient13341"
       x1="128.91948"
       y1="155.99034"
       x2="182.10519"
       y2="155.99034"
       gradientUnits="userSpaceOnUse" />
  </defs>
  <sodipodi:namedview
     id="namedview284"
     pagecolor="#ffffff"
     bordercolor="#666666"
     borderopacity="1.0"
     inkscape:pageshadow="2"
     inkscape:pageopacity="0.0"
     inkscape:pagecheckerboard="0"
     showgrid="false"
     inkscape:snap-text-baseline="true"
     inkscape:zoom="1.38"
     inkscape:cx="289.49275"
     inkscape:cy="291.66667"
     inkscape:window-width="1920"
     inkscape:window-height="991"
     inkscape:window-x="-9"
     inkscape:window-y="-9"
     inkscape:window-maximized="1"
     inkscape:current-layer="svg282" />
  <rect
     width="233.584"
     height="233.58099"
     fill="#f2f6ff"
     rx="12"
     transform="matrix(-0.37958534,-0.92515673,0.9251501,-0.37960149,0,0)"
     id="rect2"
     x="-489.51886"
     y="250.83368" />
  <rect
     width="166.514"
     height="166.512"
     fill="#F2F6FF"
     rx="12"
     transform="rotate(69.852 -153.498 289.674)"
     id="rect4" />
  <rect
     width="166.514"
     height="166.513"
     fill="#E5EEFF"
     rx="12"
     transform="rotate(-127.213 262.968 53.555)skewX(.001)"
     id="rect6" />
  <path
     fill="#fff"
     fill-rule="evenodd"
     d="m170.414 444.345 5.897-2.096-15.848-8.713 4.62 17.485 3.46-5.214 4.143 5.302 1.871-1.462z"
     clip-rule="evenodd"
     id="path8" />
  <path
     stroke="#1A1A1A"
     stroke-width=".88"
     d="m176.458 442.663.923-.328-.858-.471-15.848-8.714-.9-.494.263.992 4.62 17.486.25.947.542-.817 3.122-4.706 3.767 4.822.271.346.346-.271 1.872-1.462.346-.27-.27-.347-3.767-4.821z"
     id="path10" />
  <path
     fill="#F4F4F4"
     stroke="#E8E8E8"
     d="M92.5 144.5h463v324h-463z"
     id="path12" />
  <path
     fill="#fff"
     d="M93 145h462v31H93z"
     id="path14" />
  <path
     fill="#FF46FB"
     fill-rule="evenodd"
     d="M109.039 163.798h4.729v4.729h-4.729z"
     clip-rule="evenodd"
     id="path16" />
  <path
     fill="#FFD200"
     fill-rule="evenodd"
     d="M109.039 154.34h4.729v4.729h-4.729z"
     clip-rule="evenodd"
     id="path28" />
  <path
     fill="#1a1a1a"
     d="m 148.231,167.328 1.38,0 z"
     id="path34"
     sodipodi:nodetypes="ccc" />
  <path
     fill="#fff"
     d="M138.408 230.398h362.939v233.915H138.408z"
     id="path36" />
  <path
     fill="#E8E8E8"
     d="M169.393 266.754a2.845 2.845 0 0 1 2.845-2.845h226.363a2.845 2.845 0 0 1 0 5.69H172.238a2.845 2.845 0 0 1-2.845-2.845m0 15.177a2.845 2.845 0 0 1 2.845-2.845h226.363a2.845 2.845 0 0 1 0 5.691H172.238a2.845 2.845 0 0 1-2.845-2.846m0 16.441a2.845 2.845 0 0 1 2.845-2.846H354.34a2.846 2.846 0 0 1 0 5.691H172.238a2.845 2.845 0 0 1-2.845-2.845m0 48.054a2.845 2.845 0 0 1 2.845-2.846h295.915a2.846 2.846 0 1 1 0 5.691H172.238a2.845 2.845 0 0 1-2.845-2.845m0 13.277a2.844 2.844 0 0 1 2.845-2.845h283.269a2.845 2.845 0 1 1 0 5.69H172.238a2.845 2.845 0 0 1-2.845-2.845m0 13.279a2.845 2.845 0 0 1 2.845-2.846H461.83a2.846 2.846 0 1 1 0 5.691H172.238a2.845 2.845 0 0 1-2.845-2.845m0 13.279a2.845 2.845 0 0 1 2.845-2.846H461.83a2.846 2.846 0 1 1 0 5.691H172.238a2.845 2.845 0 0 1-2.845-2.845m0 13.275a2.845 2.845 0 0 1 2.845-2.845h270.623a2.846 2.846 0 1 1 0 5.69H172.238a2.844 2.844 0 0 1-2.845-2.845m0 13.279a2.845 2.845 0 0 1 2.845-2.845h270.623a2.846 2.846 0 1 1 0 5.69H172.238a2.845 2.845 0 0 1-2.845-2.845m0 13.279a2.844 2.844 0 0 1 2.845-2.845h270.623a2.845 2.845 0 1 1 0 5.69H172.238a2.845 2.845 0 0 1-2.845-2.845m0 13.279a2.845 2.845 0 0 1 2.845-2.846h270.623a2.846 2.846 0 1 1 0 5.691H172.238a2.845 2.845 0 0 1-2.845-2.845"
     id="path38" />
  <path
     fill="#1A1A1A"
     fill-rule="evenodd"
     d="m341 451 33.572 20.604-8.497 5.89L375 490.111 366.502 496l-8.925-12.617-8.498 5.89z"
     clip-rule="evenodd"
     id="path40" />
  <rect
     width="63.584"
     height="61.727"
     x="412.32"
     y="262.032"
     fill="#CDF"
     rx="30.864"
     id="rect42" />
  <path
     stroke="#05F"
     stroke-width=".464"
     d="M411.625 261.338h65.038v63.016h-65.038z"
     id="path44" />
  <path
     fill="#fff"
     d="M410 259.713h3.713v3.713H410z"
     id="path46" />
  <path
     fill="#05F"
     d="M410 259.713v-.464h-.464v.464zm3.713 0h.464v-.464h-.464zm0 3.713v.464h.464v-.464zm-3.713 0h-.464v.464H410zm0-3.249h3.713v-.928H410zm3.249-.464v3.713h.928v-3.713zm.464 3.249H410v.928h3.713zm-3.249.464v-3.713h-.928v3.713z"
     id="path48" />
  <path
     fill="#fff"
     d="M410 322.287h3.713V326H410z"
     id="path50" />
  <path
     fill="#05F"
     d="M410 322.287v-.464h-.464v.464zm3.713 0h.464v-.464h-.464zm0 3.713v.464h.464V326zM410 326h-.464v.464H410zm0-3.249h3.713v-.928H410zm3.249-.464V326h.928v-3.713zm.464 3.249H410v.928h3.713zm-3.249.464v-3.713h-.928V326z"
     id="path52" />
  <path
     fill="#fff"
     d="M442.287 322.287H446V326h-3.713z"
     id="path54" />
  <path
     fill="#05F"
     d="M442.287 322.287v-.464h-.464v.464zm3.713 0h.464v-.464H446zm0 3.713v.464h.464V326zm-3.713 0h-.464v.464h.464zm0-3.249H446v-.928h-3.713zm3.249-.464V326h.928v-3.713zm.464 3.249h-3.713v.928H446zm-3.249.464v-3.713h-.928V326z"
     id="path56" />
  <path
     fill="#fff"
     d="M442.287 259.713H446v3.713h-3.713z"
     id="path58" />
  <path
     fill="#05F"
     d="M442.287 259.713v-.464h-.464v.464zm3.713 0h.464v-.464H446zm0 3.713v.464h.464v-.464zm-3.713 0h-.464v.464h.464zm0-3.249H446v-.928h-3.713zm3.249-.464v3.713h.928v-3.713zm.464 3.249h-3.713v.928H446zm-3.249.464v-3.713h-.928v3.713z"
     id="path60" />
  <path
     fill="#fff"
     d="M474.574 291h3.713v3.713h-3.713z"
     id="path62" />
  <path
     fill="#05F"
     d="M474.574 291v-.464h-.464V291zm3.713 0h.464v-.464h-.464zm0 3.713v.464h.464v-.464zm-3.713 0h-.464v.464h.464zm0-3.249h3.713v-.928h-3.713zm3.249-.464v3.713h.928V291zm.464 3.249h-3.713v.928h3.713zm-3.249.464V291h-.928v3.713z"
     id="path64" />
  <path
     fill="#fff"
     d="M410 291h3.713v3.713H410z"
     id="path66" />
  <path
     fill="#05F"
     d="M410 291v-.464h-.464V291zm3.713 0h.464v-.464h-.464zm0 3.713v.464h.464v-.464zm-3.713 0h-.464v.464H410zm0-3.249h3.713v-.928H410zm3.249-.464v3.713h.928V291zm.464 3.249H410v.928h3.713zm-3.249.464V291h-.928v3.713z"
     id="path68" />
  <path
     fill="#fff"
     d="M474.574 322.287h3.713V326h-3.713z"
     id="path70" />
  <path
     fill="#05F"
     d="M474.574 322.287v-.464h-.464v.464zm3.713 0h.464v-.464h-.464zm0 3.713v.464h.464V326zm-3.713 0h-.464v.464h.464zm0-3.249h3.713v-.928h-3.713zm3.249-.464V326h.928v-3.713zm.464 3.249h-3.713v.928h3.713zm-3.249.464v-3.713h-.928V326z"
     id="path72" />
  <path
     fill="#fff"
     d="M474.574 259.713h3.713v3.713h-3.713z"
     id="path74" />
  <path
     fill="#05F"
     d="M474.574 259.713v-.464h-.464v.464zm3.713 0h.464v-.464h-.464zm0 3.713v.464h.464v-.464zm-3.713 0h-.464v.464h.464zm0-3.249h3.713v-.928h-3.713zm3.249-.464v3.713h.928v-3.713zm.464 3.249h-3.713v.928h3.713zm-3.249.464v-3.713h-.928v3.713z"
     id="path76" />
  <path
     stroke="#05F"
     stroke-width=".464"
     d="M173.004 309.838h39.038v26.016h-39.038z"
     id="path78" />
  <path
     fill="#fff"
     d="M171.379 308.213h3.713v3.713h-3.713z"
     id="path80" />
  <path
     fill="#05F"
     d="M171.379 308.213v-.464h-.464v.464zm3.713 0h.464v-.464h-.464zm0 3.713v.464h.464v-.464zm-3.713 0h-.464v.464h.464zm0-3.249h3.713v-.928h-3.713zm3.249-.464v3.713h.928v-3.713zm.464 3.249h-3.713v.928h3.713zm-3.249.464v-3.713h-.928v3.713z"
     id="path82" />
  <path
     fill="#fff"
     d="M171.379 333.787h3.713v3.713h-3.713z"
     id="path84" />
  <path
     fill="#05F"
     d="M171.379 333.787v-.464h-.464v.464zm3.713 0h.464v-.464h-.464zm0 3.713v.464h.464v-.464zm-3.713 0h-.464v.464h.464zm0-3.249h3.713v-.928h-3.713zm3.249-.464v3.713h.928v-3.713zm.464 3.249h-3.713v.928h3.713zm-3.249.464v-3.713h-.928v3.713z"
     id="path86" />
  <path
     fill="#fff"
     d="M190.666 333.787h3.713v3.713h-3.713z"
     id="path88" />
  <path
     fill="#05F"
     d="M190.666 333.787v-.464h-.464v.464zm3.713 0h.464v-.464h-.464zm0 3.713v.464h.464v-.464zm-3.713 0h-.464v.464h.464zm0-3.249h3.713v-.928h-3.713zm3.249-.464v3.713h.928v-3.713zm.464 3.249h-3.713v.928h3.713zm-3.249.464v-3.713h-.928v3.713z"
     id="path90" />
  <path
     fill="#fff"
     d="M190.666 308.213h3.713v3.713h-3.713z"
     id="path92" />
  <path
     fill="#05F"
     d="M190.666 308.213v-.464h-.464v.464zm3.713 0h.464v-.464h-.464zm0 3.713v.464h.464v-.464zm-3.713 0h-.464v.464h.464zm0-3.249h3.713v-.928h-3.713zm3.249-.464v3.713h.928v-3.713zm.464 3.249h-3.713v.928h3.713zm-3.249.464v-3.713h-.928v3.713z"
     id="path94" />
  <path
     fill="#fff"
     d="M209.953 321.5h3.713v3.713h-3.713z"
     id="path96" />
  <path
     fill="#05F"
     d="M209.953 321.5v-.464h-.464v.464zm3.713 0h.464v-.464h-.464zm0 3.713v.464h.464v-.464zm-3.713 0h-.464v.464h.464zm0-3.249h3.713v-.928h-3.713zm3.249-.464v3.713h.928V321.5zm.464 3.249h-3.713v.928h3.713zm-3.249.464V321.5h-.928v3.713z"
     id="path98" />
  <path
     fill="#fff"
     d="M171.379 321.5h3.713v3.713h-3.713z"
     id="path100" />
  <path
     fill="#05F"
     d="M171.379 321.5v-.464h-.464v.464zm3.713 0h.464v-.464h-.464zm0 3.713v.464h.464v-.464zm-3.713 0h-.464v.464h.464zm0-3.249h3.713v-.928h-3.713zm3.249-.464v3.713h.928V321.5zm.464 3.249h-3.713v.928h3.713zm-3.249.464V321.5h-.928v3.713z"
     id="path102" />
  <path
     fill="#fff"
     d="M209.953 333.787h3.713v3.713h-3.713z"
     id="path104" />
  <path
     fill="#05F"
     d="M209.953 333.787v-.464h-.464v.464zm3.713 0h.464v-.464h-.464zm0 3.713v.464h.464v-.464zm-3.713 0h-.464v.464h.464zm0-3.249h3.713v-.928h-3.713zm3.249-.464v3.713h.928v-3.713zm.464 3.249h-3.713v.928h3.713zm-3.249.464v-3.713h-.928v3.713z"
     id="path106" />
  <path
     fill="#fff"
     d="M209.953 308.213h3.713v3.713h-3.713z"
     id="path108" />
  <path
     fill="#05F"
     d="M209.953 308.213v-.464h-.464v.464zm3.713 0h.464v-.464h-.464zm0 3.713v.464h.464v-.464zm-3.713 0h-.464v.464h.464zm0-3.249h3.713v-.928h-3.713zm3.249-.464v3.713h.928v-3.713zm.464 3.249h-3.713v.928h3.713zm-3.249.464v-3.713h-.928v3.713z"
     id="path110" />
  <path
     fill="#333"
     d="M182.361 316.386a45 45 0 0 0-.022 1.425v3.431q0 .713.022 1.437l1.025.123v.456h-3.141v-.456l1.024-.123q.023-.69.023-1.414v-1.56h-3.632v1.548q0 .724.023 1.426l1.036.123v.456h-3.153v-.456l1.025-.123q.022-.702.022-1.414v-3.442q0-.714-.022-1.437l-1.025-.123v-.456h3.153v.456l-1.036.123q-.023.69-.023 1.392v1.404h3.632v-1.393q0-.702-.023-1.403l-1.024-.123v-.456h3.141v.456zm5.096 3.698q.401 0 .535-.167a.64.64 0 0 0 .133-.412q0-.234-.1-.446a1.2 1.2 0 0 0-.256-.39q-.156-.167-.379-.267a1.1 1.1 0 0 0-.468-.1q-.233 0-.49.1a1.2 1.2 0 0 0-.456.312 2 2 0 0 0-.357.557 2.7 2.7 0 0 0-.189.813zm-2.049.479q.021 1.035.512 1.593.49.557 1.292.557.536 0 .891-.223a2.8 2.8 0 0 0 .657-.579l.268.211a2.3 2.3 0 0 1-.836.958q-.535.345-1.303.345a2.7 2.7 0 0 1-1.025-.189 2.14 2.14 0 0 1-.779-.546 2.6 2.6 0 0 1-.502-.88 3.5 3.5 0 0 1-.178-1.147q0-.635.201-1.158.2-.535.545-.914.357-.378.825-.59t.991-.212q.435 0 .813.145.39.146.669.423.278.278.434.68.167.4.167.902a2.4 2.4 0 0 1-.078.624zm7.296 2.294v.401h-2.741v-.401l.88-.156q.011-.456.011-.891.012-.445.012-.891v-4.778l-.914-.112v-.39l1.738-.501.156.089-.045 1.582v5.001l.023.891zm3.529 0v.401h-2.74v-.401l.88-.156q.01-.456.011-.891.011-.445.011-.891v-4.778l-.913-.112v-.39l1.738-.501.155.089-.044 1.582v5.001l.022.891zm3.563-4.555q-.735 0-1.125.601-.39.59-.39 1.727 0 1.125.39 1.715.39.579 1.125.579.724 0 1.114-.579.39-.59.39-1.715 0-1.137-.39-1.727-.39-.601-1.114-.601m0-.513q.478 0 .936.19.468.177.824.545.357.357.579.891.223.523.223 1.215 0 .69-.223 1.214a2.4 2.4 0 0 1-1.403 1.403 2.6 2.6 0 0 1-.936.178q-.49 0-.958-.178a2.4 2.4 0 0 1-.813-.523 2.7 2.7 0 0 1-.579-.88 3.2 3.2 0 0 1-.212-1.214q0-.692.212-1.215.222-.534.579-.891.368-.368.824-.545.457-.19.947-.19m4.888 5.636q-.3 0-.512-.211a.73.73 0 0 1-.212-.513q0-.29.212-.501a.68.68 0 0 1 .512-.223q.302 0 .501.223a.68.68 0 0 1 .212.501q0 .29-.212.513a.66.66 0 0 1-.501.211m0-7.786q.29 0 .457.168.178.166.178.534 0 .313-.078 1.069l-.2 1.928-.156 1.514h-.412l-.145-1.514q-.123-1.17-.212-1.928a12 12 0 0 1-.078-1.069q0-.368.178-.534a.66.66 0 0 1 .468-.168"
     id="path112" />
  <path
     stroke="#05F"
     stroke-width=".464"
     d="M260.242 393.783h96.038v38.016h-96.038z"
     id="path114" />
  <path
     fill="#fff"
     d="M258.617 392.159h3.713v3.713h-3.713z"
     id="path116" />
  <path
     fill="#05F"
     d="M258.617 392.159v-.464h-.464v.464zm3.713 0h.464v-.464h-.464zm0 3.713v.464h.464v-.464zm-3.713 0h-.464v.464h.464zm0-3.249h3.713v-.928h-3.713zm3.249-.464v3.713h.928v-3.713zm.464 3.249h-3.713v.928h3.713zm-3.249.464v-3.713h-.928v3.713z"
     id="path118" />
  <path
     fill="#fff"
     d="M258.617 429.733h3.713v3.713h-3.713z"
     id="path120" />
  <path
     fill="#05F"
     d="M258.617 429.733v-.464h-.464v.464zm3.713 0h.464v-.464h-.464zm0 3.713v.464h.464v-.464zm-3.713 0h-.464v.464h.464zm0-3.249h3.713v-.928h-3.713zm3.249-.464v3.713h.928v-3.713zm.464 3.249h-3.713v.928h3.713zm-3.249.464v-3.713h-.928v3.713z"
     id="path122" />
  <path
     fill="#fff"
     d="M305.904 429.733h3.713v3.713h-3.713z"
     id="path124" />
  <path
     fill="#05F"
     d="M305.904 429.733v-.464h-.464v.464zm3.713 0h.464v-.464h-.464zm0 3.713v.464h.464v-.464zm-3.713 0h-.464v.464h.464zm0-3.249h3.713v-.928h-3.713zm3.249-.464v3.713h.928v-3.713zm.464 3.249h-3.713v.928h3.713zm-3.249.464v-3.713h-.928v3.713z"
     id="path126" />
  <path
     fill="#fff"
     d="M305.904 392.159h3.713v3.713h-3.713z"
     id="path128" />
  <path
     fill="#05F"
     d="M305.904 392.159v-.464h-.464v.464zm3.713 0h.464v-.464h-.464zm0 3.713v.464h.464v-.464zm-3.713 0h-.464v.464h.464zm0-3.249h3.713v-.928h-3.713zm3.249-.464v3.713h.928v-3.713zm.464 3.249h-3.713v.928h3.713zm-3.249.464v-3.713h-.928v3.713z"
     id="path130" />
  <path
     fill="#fff"
     d="M354.191 411.446h3.713v3.713h-3.713z"
     id="path132" />
  <path
     fill="#05F"
     d="M354.191 411.446v-.464h-.464v.464zm3.713 0h.464v-.464h-.464zm0 3.713v.464h.464v-.464zm-3.713 0h-.464v.464h.464zm0-3.249h3.713v-.928h-3.713zm3.249-.464v3.713h.928v-3.713zm.464 3.249h-3.713v.928h3.713zm-3.248.464v-3.713h-.929v3.713z"
     id="path134" />
  <path
     fill="#fff"
     d="M258.617 411.446h3.713v3.713h-3.713z"
     id="path136" />
  <path
     fill="#05F"
     d="M258.617 411.446v-.464h-.464v.464zm3.713 0h.464v-.464h-.464zm0 3.713v.464h.464v-.464zm-3.713 0h-.464v.464h.464zm0-3.249h3.713v-.928h-3.713zm3.249-.464v3.713h.928v-3.713zm.464 3.249h-3.713v.928h3.713zm-3.249.464v-3.713h-.928v3.713z"
     id="path138" />
  <path
     fill="#fff"
     d="M354.191 429.733h3.713v3.713h-3.713z"
     id="path140" />
  <path
     fill="#05F"
     d="M354.191 429.733v-.464h-.464v.464zm3.713 0h.464v-.464h-.464zm0 3.713v.464h.464v-.464zm-3.713 0h-.464v.464h.464zm0-3.249h3.713v-.928h-3.713zm3.249-.464v3.713h.928v-3.713zm.464 3.249h-3.713v.928h3.713zm-3.248.464v-3.713h-.929v3.713z"
     id="path142" />
  <path
     fill="#fff"
     d="M354.191 392.159h3.713v3.713h-3.713z"
     id="path144" />
  <path
     fill="#05F"
     d="M354.191 392.159v-.464h-.464v.464zm3.713 0h.464v-.464h-.464zm0 3.713v.464h.464v-.464zm-3.713 0h-.464v.464h.464zm0-3.249h3.713v-.928h-3.713zm3.249-.464v3.713h.928v-3.713zm.464 3.249h-3.713v.928h3.713zm-3.248.464v-3.713h-.929v3.713z"
     id="path146" />
  <path
     fill="#F23030"
     fill-rule="evenodd"
     d="M341.435 396.271c-3.921.909-7.737 2.403-10.615 3.831-1.463.725-3.029 1.538-4.565 2.461.538 2.015.623 4.329.577 6.619-.034 1.719-.896 4.532-2.358 6.635-.735 1.056-1.648 1.973-2.727 2.47-1.1.505-2.342.558-3.662-.071-1.444-.688-1.848-2.307-1.851-3.787-.003-1.508.402-3.086.812-4.007 1.559-3.508 4.765-6.186 8.115-8.277-.43-1.279-1.081-2.359-2.042-3.165-1.042-.873-2.489-1.459-4.516-1.591-4.132-.269-8.432.823-12.301 2.831 5.292 3.679 6.871 10.843 7.038 16.932.088 3.233-.704 6.588-2.49 9.155-1.798 2.583-4.594 4.351-8.44 4.373-2.408.015-4.234-1.247-5.603-2.94-1.188-1.47-2.058-3.295-2.699-4.985-1.55 1.671-3.652 3.264-5.969 4.299-2.486 1.111-5.263 1.597-7.881.788-1.703-.526-2.786-1.821-3.421-3.449-.631-1.618-.836-3.6-.781-5.604.109-3.997 1.258-8.253 2.364-10.218 2.065-3.668 5.311-6.633 9.088-8.539a16 16 0 0 0-3.254-.602c-10.003-.813-19.081 2.915-22.881 12.558a.464.464 0 0 1-.864-.341c3.996-10.139 13.549-13.977 23.82-13.143a16.6 16.6 0 0 1 4.4.957c4.28-1.847 9.142-2.369 13.719-1.055 1.079.31 2.061.729 2.952 1.242 4.109-2.23 8.76-3.478 13.263-3.185 2.182.142 3.83.78 5.053 1.806 1.07.897 1.784 2.065 2.256 3.382 1.504-.894 3.025-1.681 4.436-2.381 2.931-1.454 6.815-2.976 10.817-3.903 3.993-.926 8.154-1.273 11.611-.326.78.213 1.372.723 1.812 1.306s.744 1.262.948 1.868a.464.464 0 1 1-.879.297c-.185-.548-.451-1.128-.811-1.606-.359-.476-.793-.827-1.315-.97-3.242-.887-7.226-.576-11.156.335m-36.986 3.916a12.5 12.5 0 0 0-2.257-.889c-4.049-1.162-8.356-.817-12.249.671 3.131 1.473 5.493 3.898 6.869 6.763 2.058-2.553 4.694-4.804 7.637-6.545m-8.278 7.375c-1.353-3.099-3.92-5.703-7.417-7.097-3.979 1.8-7.409 4.803-9.525 8.562-1.014 1.8-2.139 5.898-2.245 9.788-.053 1.939.149 3.783.718 5.241.564 1.448 1.473 2.48 2.83 2.9 2.335.721 4.872.304 7.229-.749 2.355-1.053 4.487-2.722 5.98-4.432l.009-.01q-.147-.431-.276-.837c-1.383-4.352-.539-8.473 1.914-12.239q.374-.572.783-1.127m-1.727 13.349q-.044-.133-.085-.265c-1.286-4.045-.519-7.88 1.807-11.45q.197-.303.406-.6c1.324 3.904.799 8.44-2.128 12.315m.358 1.047c3.608-4.421 4.183-9.775 2.43-14.26 2.127-2.751 4.96-5.171 8.147-6.977 5.212 3.318 6.863 10.255 7.033 16.456.084 3.081-.675 6.23-2.324 8.6-1.638 2.353-4.161 3.955-7.683 3.975-2.035.012-3.618-1.039-4.876-2.596-1.208-1.494-2.085-3.42-2.727-5.198m30.625-18.885c-3.209 2.035-6.12 4.547-7.533 7.726-.36.81-.735 2.259-.732 3.629.003 1.398.391 2.506 1.322 2.95 1.067.509 2.021.458 2.875.065.874-.401 1.671-1.176 2.353-2.156 1.369-1.968 2.162-4.606 2.192-6.124.044-2.165-.035-4.269-.477-6.09"
     clip-rule="evenodd"
     id="path148" />
  <path
     fill="#FFB700"
     d="M570.6 48.4V42h-3.2v6.4H561v3.2h6.4V58h3.2v-6.4h6.4v-3.2zm-519 87V129h-3.2v6.4H42v3.2h6.4v6.4h3.2v-6.4H58v-3.2z"
     id="path150" />
  <path
     fill="#FF5975"
     fill-rule="evenodd"
     d="M88 97a8 8 0 1 1-16 0 8 8 0 0 1 16 0m-12.443 0a4.444 4.444 0 1 0 8.888 0 4.444 4.444 0 0 0-8.888 0"
     clip-rule="evenodd"
     id="path152" />
  <path
     fill="#0FC0C5"
     fill-rule="evenodd"
     d="M210 548a8 8 0 1 1-16 0 8 8 0 0 1 16 0m-12.444 0a4.445 4.445 0 1 0 8.89-.001 4.445 4.445 0 0 0-8.89.001"
     clip-rule="evenodd"
     id="path154" />
  <path
     fill="#FF5975"
     fill-rule="evenodd"
     d="M236.516 523.011a1.763 1.763 0 1 1 2.495-2.494l3.742 3.742a1.763 1.763 0 1 1-2.495 2.494zm8.731 8.731a1.764 1.764 0 0 1 2.494-2.495l3.742 3.742a1.764 1.764 0 0 1-2.494 2.495zm-8.731 3.742a1.766 1.766 0 0 0 2.495 0l3.742-3.742a1.764 1.764 0 1 0-2.495-2.495l-3.742 3.742a1.764 1.764 0 0 0 0 2.495m11.222-8.729a1.764 1.764 0 1 1-2.495-2.495l3.742-3.742a1.764 1.764 0 1 1 2.495 2.495z"
     clip-rule="evenodd"
     id="path156" />
  <path
     fill="#ff5975"
     fill-rule="evenodd"
     d="m 321.50356,320.37326 a 1.7638779,1.7638779 0 1 1 2.495,-2.494 l 3.742,3.742 a 1.7638779,1.7638779 0 1 1 -2.495,2.494 z m 8.731,8.731 a 1.764,1.764 0 0 1 2.494,-2.495 l 3.742,3.742 a 1.764,1.764 0 0 1 -2.494,2.495 z m -8.731,3.742 a 1.766,1.766 0 0 0 2.495,0 l 3.742,-3.742 a 1.7642314,1.7642314 0 1 0 -2.495,-2.495 l -3.742,3.742 a 1.764,1.764 0 0 0 0,2.495 m 11.222,-8.729 a 1.7642314,1.7642314 0 1 1 -2.495,-2.495 l 3.742,-3.742 a 1.7642314,1.7642314 0 1 1 2.495,2.495 z"
     clip-rule="evenodd"
     id="path156-7" />
  <path
     fill="#ff5975"
     fill-rule="evenodd"
     d="m 270.05428,314.57616 a 1.7638779,1.7638779 0 1 1 2.495,-2.494 l 3.742,3.742 a 1.7638779,1.7638779 0 1 1 -2.495,2.494 z m 8.731,8.731 a 1.764,1.764 0 0 1 2.494,-2.495 l 3.742,3.742 a 1.764,1.764 0 0 1 -2.494,2.495 z m -8.731,3.742 a 1.766,1.766 0 0 0 2.495,0 l 3.742,-3.742 a 1.7642314,1.7642314 0 1 0 -2.495,-2.495 l -3.742,3.742 a 1.764,1.764 0 0 0 0,2.495 m 11.222,-8.729 a 1.7642314,1.7642314 0 1 1 -2.495,-2.495 l 3.742,-3.742 a 1.7642314,1.7642314 0 1 1 2.495,2.495 z"
     clip-rule="evenodd"
     id="path156-3" />
  <path
     fill="#0FC0C5"
     fill-rule="evenodd"
     d="M593.516 82.011a1.764 1.764 0 1 1 2.495-2.494l3.742 3.742a1.764 1.764 0 1 1-2.495 2.494zm8.731 8.73a1.764 1.764 0 1 1 2.494-2.494l3.742 3.742a1.764 1.764 0 0 1-2.494 2.495zm-8.731 3.743a1.765 1.765 0 0 0 2.495 0l3.742-3.742a1.764 1.764 0 1 0-2.495-2.495l-3.742 3.742a1.764 1.764 0 0 0 0 2.495m11.222-8.73a1.764 1.764 0 0 1-2.495-2.494l3.742-3.742a1.764 1.764 0 0 1 2.495 2.495z"
     clip-rule="evenodd"
     id="path158" />
  <path
     fill="#F23030"
     d="M476 500a4 4 0 0 1 4-4h24a4 4 0 0 1 4 4v24a4 4 0 0 1-4 4h-24a4 4 0 0 1-4-4z"
     id="path160" />
  <path
     fill="#fff"
     fill-rule="evenodd"
     d="m492 505.25-9-2.25 2.25 9-2.25 9 9-2.25 9 2.25-2.25-9 2.25-9zm7.626-.876L492 506.281l-7.626-1.907 1.907 7.626-1.907 7.626 7.626-1.907 7.626 1.907-1.907-7.626z"
     clip-rule="evenodd"
     id="path162" />
  <path
     fill="#ffffff"
     fill-rule="evenodd"
     d="m 427.53623,501.94566 -9,-2.25 2.25,9 -2.25,9 9,-2.25 9,2.25 -2.25,-9 2.25,-9 z m 7.626,-0.876 -7.626,1.907 -7.626,-1.907 1.907,7.626 -1.907,7.626 7.626,-1.907 7.626,1.907 -1.907,-7.626 z"
     clip-rule="evenodd"
     id="path162-5"
     style="fill:#e72424;fill-opacity:1" />
  <path
     fill="#3D99F5"
     d="M532 446a6 6 0 0 1 6-6h36a6 6 0 0 1 6 6v36a6 6 0 0 1-6 6h-36a6 6 0 0 1-6-6z"
     id="path164" />
  <path
     fill="#fff"
     d="m566.631 477.5 7.369-27h-5.91l-4.491 18.605h-.077L558.84 450.5h-5.642l-4.759 18.378h-.077l-4.336-18.378H538l7.254 27h6.102l4.567-18.378H556l4.644 18.378z"
     id="path166" />
  <path
     fill="#FFB700"
     d="M485 410a4 4 0 0 1 4-4h24a4 4 0 0 1 4 4v24a4 4 0 0 1-4 4h-24a4 4 0 0 1-4-4z"
     id="path168" />
  <path
     fill="#fff"
     fill-rule="evenodd"
     d="m494.333 416 9.334 9.297 3.939-3.924 9.394 8.174V433l-9.273-7.992-4.06 4.045-9.334-9.296-9.333 9.259v-3.719z"
     clip-rule="evenodd"
     id="path170" />
  <circle
     cx="510"
     cy="413"
     r="4"
     fill="#fff"
     id="circle172" />
  <path
     fill="#E667E6"
     d="M61 275a4 4 0 0 1 4-4h40a4 4 0 0 1 4 4v40a4 4 0 0 1-4 4H65a4 4 0 0 1-4-4z"
     id="path174" />
  <path
     fill="#fff"
     fill-rule="evenodd"
     d="m85 311.5 12-19.059-1.5-7.941H74.61L73 292.441zm0-2.815 10.417-16.544-1.16-6.141h-18.42l-1.248 6.15z"
     clip-rule="evenodd"
     id="path176" />
  <path
     fill="#fff"
     fill-rule="evenodd"
     d="M84.25 309.25v-11.802h1.5v11.802zM71.5 278.5l3 7.5h21l3-7.5zm2.207 1.494 1.804 4.512H94.49l1.804-4.512z"
     clip-rule="evenodd"
     id="path178" />
  <path
     fill="#fff"
     fill-rule="evenodd"
     d="M85 289.75a3.75 3.75 0 1 0 0 7.5 3.75 3.75 0 0 0 0-7.5m-5.25 3.75a5.25 5.25 0 1 1 10.5 0 5.25 5.25 0 0 1-10.5 0"
     clip-rule="evenodd"
     id="path180" />
  <path
     fill="#0FC0C5"
     d="M202 83a4 4 0 0 1 4-4h40a4 4 0 0 1 4 4v40a4 4 0 0 1-4 4h-40a4 4 0 0 1-4-4z"
     id="path182" />
  <path
     fill="#fff"
     fill-rule="evenodd"
     d="M224.5 99.667 236.167 88l3.333 3.333L227.833 103H224.5z"
     clip-rule="evenodd"
     id="path184" />
  <path
     fill="#fff"
     fill-rule="evenodd"
     d="M212.5 89.5H232V91h-18v24h19.5v-15h1.5v16.5h-22.5z"
     clip-rule="evenodd"
     id="path186" />
  <path
     fill="#fff"
     fill-rule="evenodd"
     d="M223 104.5h-7.5V103h7.5zm0 9h-7.5V112h7.5z"
     clip-rule="evenodd"
     id="path188" />
  <path
     fill="#fff"
     fill-rule="evenodd"
     d="M218.5 112.75v-9h1.5v9z"
     clip-rule="evenodd"
     id="path190" />
  <path
     fill="#7961F2"
     d="M262 129a4 4 0 0 1 4-4h24a4 4 0 0 1 4 4v24a4 4 0 0 1-4 4h-24a4 4 0 0 1-4-4z"
     id="path192" />
  <path
     fill="#fff"
     fill-rule="evenodd"
     d="M269.5 131.5h12v4.5h-1v-3.5h-10v13h4.5v1h-5.5z"
     clip-rule="evenodd"
     id="path194" />
  <path
     fill="#fff"
     fill-rule="evenodd"
     d="M286 137h-10v12h10zm-11-1v14h12v-14z"
     clip-rule="evenodd"
     id="path196" />
  <path
     fill="#fff"
     fill-rule="evenodd"
     d="M280.5 146v-6h1v6z"
     clip-rule="evenodd"
     id="path198" />
  <path
     fill="#fff"
     fill-rule="evenodd"
     d="M284 143.5h-6v-1h6z"
     clip-rule="evenodd"
     id="path200" />
  <path
     fill="#fff"
     d="M93 176h462v18.94H93z"
     id="path202" />
  <path
     fill="#E5EEFF"
     d="M96.91 179.786c0-.72.584-1.304 1.304-1.304h11.732v13.036H98.214c-.72 0-1.304-.584-1.304-1.304z"
     id="path204" />
  <path
     fill="#1A1A1A"
     fill-rule="evenodd"
     d="M101.148 187.933h4.563v-5.866h-4.563zm-.326-6.192v6.518h5.215v-6.518zm1.304 2.607h2.607v.326h-2.607zm2.607-.977h-2.607v.326h2.607zm-2.607 1.955h2.607v.326h-2.607zm1.629.978h-1.629v.326h1.629zm10.426-4.237h1.63v2.281h-1.63zm-.326 2.607v-2.933h2.282v2.933zm3.259-2.607h1.63v2.281h-1.63zm-.325 2.607v-2.933h2.281v2.933zm-.978.978h-1.63v2.281h1.63zm-1.956-.326v2.933h2.282v-2.933zm3.259.326h1.63v2.281h-1.63zm-.325 2.607v-2.933h2.281v2.933z"
     clip-rule="evenodd"
     id="path206" />
  <path
     stroke="#E8E8E8"
     stroke-width=".326"
     d="M110.108 178.645h11.57c.63 0 1.14.511 1.14 1.141v10.428c0 .63-.51 1.141-1.14 1.141h-11.57z"
     id="path208" />
  <path
     fill="#1A1A1A"
     fill-rule="evenodd"
     d="M134.064 182.067h-1.955v6.192h1.955zm.326 0v6.192h2.933v-6.192zm-2.607-.326v6.844h5.866v-6.844zm1.63.978h-.652v.978h.652zm-.978-.326v1.63h1.304v-1.63zm.978 2.281h-.652v.978h.652zm-.978-.326v1.63h1.304v-1.63zm.326 2.282h.652v.977h-.652zm-.326 1.303v-1.629h1.304v1.629z"
     clip-rule="evenodd"
     id="path210" />
  <path
     fill="#E8E8E8"
     d="M129.501 178.808h10.429v-.652h-10.429zm11.406.978v10.428h.652v-10.428zm-.977 11.406h-10.429v.652h10.429zm-11.407-.978v-10.428h-.652v10.428zm.978.978a.98.98 0 0 1-.978-.978h-.652c0 .9.73 1.63 1.63 1.63zm11.406-.978c0 .54-.437.978-.977.978v.652c.9 0 1.629-.73 1.629-1.63zm-.977-11.406c.54 0 .977.438.977.978h.652c0-.9-.729-1.63-1.629-1.63zm-10.429-.652c-.9 0-1.63.73-1.63 1.63h.652c0-.54.438-.978.978-.978z"
     id="path212" />
  <path
     fill="#E5EEFF"
     d="M239.266 179.786c0-.72.583-1.304 1.303-1.304h10.429c.72 0 1.304.584 1.304 1.304v10.428c0 .72-.584 1.304-1.304 1.304h-10.429c-.72 0-1.303-.584-1.303-1.304z"
     id="path214" />
  <path
     fill="#1A1A1A"
     fill-rule="evenodd"
     d="m243.502 182.067 1.084 4.989 1.141-.768 1.197 1.645 1.141-.768-1.198-1.644 1.14-.768z"
     clip-rule="evenodd"
     id="path216" />
  <path
     fill="#F4F4F4"
     d="M254.908 179.786c0-.72.584-1.304 1.304-1.304h10.429c.72 0 1.303.584 1.303 1.304v10.428c0 .72-.583 1.304-1.303 1.304h-10.429c-.72 0-1.304-.584-1.304-1.304z"
     id="path218" />
  <path
     stroke="#1A1A1A"
     stroke-width=".326"
     d="m263.039 182.234 1.152 1.152-3.687 3.687-1.152-1.152z"
     id="path220" />
  <path
     fill="#1A1A1A"
     stroke="#1A1A1A"
     stroke-width=".163"
     d="m262.348 182.811 1.267 1.267-.115.115-1.267-1.267z"
     id="path222" />
  <path
     fill="#1A1A1A"
     stroke="#1A1A1A"
     stroke-width=".326"
     d="m263.73 182.004.692.692-.231.23-.692-.691zm-4.812 5.503.159-.477.319.318z"
     id="path224" />
  <path
     stroke="#1A1A1A"
     stroke-width=".326"
     d="m259.121 186.152.231-.231 1.152 1.153-.231.23-1.613.461z"
     id="path226" />
  <path
     fill="#F4F4F4"
     d="M270.553 179.786c0-.72.583-1.304 1.303-1.304h10.429c.72 0 1.304.584 1.304 1.304v10.428c0 .72-.584 1.304-1.304 1.304h-10.429c-.72 0-1.303-.584-1.303-1.304z"
     id="path228" />
  <path
     stroke="#1A1A1A"
     stroke-width=".326"
     d="m275.306 184.75 3.912-2.914 1.018 1.018-2.914 3.912zm-.247-.018c.073.337.087 1.142-.439 1.668m-.022-.022 1.097 1.098m1.645-.461c-.337-.074-1.141-.088-1.668.439"
     id="path230" />
  <path
     fill="#1A1A1A"
     stroke="#1A1A1A"
     stroke-width=".326"
     d="m274.707 186.718.647.648-.333.333-.871-.424z"
     id="path232" />
  <path
     fill="#F4F4F4"
     d="M286.195 179.786c0-.72.584-1.304 1.304-1.304h10.429c.72 0 1.303.584 1.303 1.304v10.428c0 .72-.583 1.304-1.303 1.304h-10.429c-.72 0-1.304-.584-1.304-1.304z"
     id="path234" />
  <path
     fill="#1A1A1A"
     fill-rule="evenodd"
     d="m294.247 182.433 1.054 1.053a.327.327 0 0 1 0 .461l-2.393 2.392-1.514-1.514 2.392-2.392a.325.325 0 0 1 .461 0m-.691-.231a.653.653 0 0 1 .922 0l1.053 1.054a.65.65 0 0 1 0 .921l-3.687 3.688a.653.653 0 0 1-.922 0l-1.053-1.054a.65.65 0 0 1 0-.922z"
     clip-rule="evenodd"
     id="path236" />
  <path
     fill="#E8E8E8"
     d="M301.838 178.482h.326v13.036h-.326z"
     id="path238" />
  <rect
     width="13.036"
     height="13.036"
     x="304.771"
     y="178.482"
     fill="#F4F4F4"
     rx="1.304"
     id="rect240" />
  <path
     fill="#1A1A1A"
     d="M310.448 187.067v-5.374h-1.815v-.642h4.401v.642h-1.815v5.374z"
     id="path242" />
  <path
     fill="#F4F4F4"
     d="M320.414 179.786c0-.72.584-1.304 1.304-1.304h10.428c.72 0 1.304.584 1.304 1.304v10.428c0 .72-.584 1.304-1.304 1.304h-10.428c-.72 0-1.304-.584-1.304-1.304z"
     id="path244" />
  <path
     fill="#1A1A1A"
     d="M323.672 183.371c0-.36.292-.652.652-.652h2.607v4.562h-2.607a.65.65 0 0 1-.652-.651z"
     id="path246" />
  <path
     fill="#fff"
     d="m325.06 185.335-.09.313h.653l-.09-.313a12 12 0 0 1-.121-.418l-.11-.426h-.015l-.11.43a8 8 0 0 1-.117.414m-.857 1.361.833-2.557h.532l.833 2.557h-.477l-.199-.692h-.861l-.199.692z"
     id="path248" />
  <path
     fill="#1A1A1A"
     d="M329.165 186.743a.7.7 0 0 1-.27-.062 1 1 0 0 1-.254-.188h-.012l-.039.203h-.356v-2.761h.45v.712l-.012.321q.122-.106.263-.172a.7.7 0 0 1 .293-.067.7.7 0 0 1 .559.266.9.9 0 0 1 .149.305q.051.18.051.403 0 .247-.071.442a1 1 0 0 1-.18.324.8.8 0 0 1-.262.204.7.7 0 0 1-.309.07m-.094-.371a.4.4 0 0 0 .321-.165q.129-.168.129-.496 0-.29-.098-.45-.097-.16-.316-.16-.204 0-.423.215v.895q.102.09.2.125a.6.6 0 0 0 .187.036"
     id="path250" />
  <path
     fill="#1A1A1A"
     fill-rule="evenodd"
     d="M327.583 181.741h.652v.326h-.652v5.866h.652v.326h-1.63v-.326h.652v-5.866h-.652v-.326z"
     clip-rule="evenodd"
     id="path252" />
  <path
     fill="#F4F4F4"
     d="M336.059 179.786c0-.72.583-1.304 1.303-1.304h16.947c.72 0 1.304.584 1.304 1.304v10.428c0 .72-.584 1.304-1.304 1.304h-16.947c-.72 0-1.303-.584-1.303-1.304z"
     id="path254" />
  <path
     fill="#1A1A1A"
     fill-rule="evenodd"
     d="M345.183 182.393h-5.215v5.214h5.215zm-5.54-.326v5.866h5.866v-5.866zm9.127 2.281h3.259l-1.63 1.63z"
     clip-rule="evenodd"
     id="path256" />
  <path
     fill="#F4F4F4"
     d="M358.219 179.786c0-.72.583-1.304 1.303-1.304h16.947c.72 0 1.304.584 1.304 1.304v10.428c0 .72-.584 1.304-1.304 1.304h-16.947c-.72 0-1.303-.584-1.303-1.304z"
     id="path258" />
  <path
     fill="#1A1A1A"
     d="M367.496 182.402a.163.163 0 0 0-.163-.163h-1.466a.163.163 0 0 0 0 .326h1.303v1.304a.163.163 0 0 0 .326 0zm-5.578 5.646 5.531-5.53-.231-.231-5.53 5.531z"
     id="path260" />
  <path
     fill="#1A1A1A"
     fill-rule="evenodd"
     d="M370.93 184.348h3.259l-1.63 1.63z"
     clip-rule="evenodd"
     id="path262" />
  <path
     fill="#F4F4F4"
     d="M380.381 179.786c0-.72.583-1.304 1.303-1.304h10.429c.72 0 1.304.584 1.304 1.304v10.428c0 .72-.584 1.304-1.304 1.304h-10.429c-.72 0-1.303-.584-1.303-1.304z"
     id="path264" />
  <path
     fill="#1A1A1A"
     fill-rule="evenodd"
     d="M389.505 182.393v5.214h-5.214v-5.214zm-3.744 2.698-1.144.805v1.385h4.563v-.433l-1.205-1.1-.948.649zm3.419-2.373h-4.563v2.787l1.182-.831 1.269 1.308.935-.64 1.177 1.074zm-.978.652a.652.652 0 1 1 0 1.304.652.652 0 0 1 0-1.304"
     clip-rule="evenodd"
     id="path266" />
  <path
     fill="#F4F4F4"
     d="M396.023 179.786c0-.72.584-1.304 1.304-1.304h10.429c.72 0 1.303.584 1.303 1.304v10.428c0 .72-.583 1.304-1.303 1.304h-10.429c-.72 0-1.304-.584-1.304-1.304z"
     id="path268" />
  <path
     fill="#1A1A1A"
     fill-rule="evenodd"
     d="M404.035 182.434c.201.824-.184 1.463-1.122 1.916a51 51 0 0 0-.204.867 7 7 0 0 1 .304-.138c.141-.061.213-.09.557-.23.467-.19.753-.193.724.138-.012.138-.1.277-.333.587l-.019.025-.133.177q-.12.165-.239.322.207-.121.484-.29c.442-.271.777-.408 1.022-.408.307 0 .472.21.464.55l-.326-.007c.004-.171-.032-.217-.138-.217-.168 0-.458.119-.852.36q-.632.387-.909.527a.8.8 0 0 1-.228.092c-.099.016-.207-.022-.212-.163-.002-.062.019-.099.056-.145q.296-.378.615-.814l.11-.147.045-.059q.15-.198.215-.305a2 2 0 0 0-.223.079c-.342.138-.413.167-.551.227-.198.086-.37.168-.524.253l-.019.087q-.176.723-.374 1.237h3.249v.326h-3.385c-.245.53-.517.839-.825.929-.233.069-.424.016-.517-.162-.071-.135-.069-.321-.013-.546q.026-.105.068-.221h-1.195v-.326h1.335a4 4 0 0 1 .635-.918c.234-.253.468-.444.753-.616q.108-.49.209-.91a8 8 0 0 1-1.219.338l-.064-.32q.828-.166 1.378-.406.3-1.193.538-1.724c.299-.668.692-.664.863.035m-2.309 4.847h-.574a2 2 0 0 0-.102.3c-.038.155-.039.268-.014.316.011.022.039.029.136.001q.28-.082.554-.617m.493-1.392a3.7 3.7 0 0 0-.554.541 3.5 3.5 0 0 0-.355.525l.564.001q.179-.435.345-1.067m-1.525-.889.217.217-.435.435.435.434-.217.217-.435-.434-.434.434-.218-.217.435-.434-.435-.435.218-.217.434.434zm2.775-2.467q-.197.44-.448 1.393c.612-.369.838-.841.697-1.415-.092-.379-.07-.379-.249.022m108.838 2.548-.233.245-1.396-1.467 1.396-1.466.233.244-1.008 1.059h2.638a1.955 1.955 0 0 1 0 3.911h-1.63v-.326h1.63a1.629 1.629 0 1 0 0-3.259h-2.639z"
     clip-rule="evenodd"
     id="path270" />
  <path
     fill="#E8E8E8"
     d="M508.071 178.808H518.5v-.652h-10.429zm11.407.978v10.428h.651v-10.428zm-.978 11.406h-10.429v.652H518.5zm-11.407-.978v-10.428h-.651v10.428zm.978.978a.98.98 0 0 1-.978-.978h-.651c0 .9.729 1.63 1.629 1.63zm11.407-.978c0 .54-.438.978-.978.978v.652c.9 0 1.629-.73 1.629-1.63zm-.978-11.406c.54 0 .978.438.978.978h.651c0-.9-.729-1.63-1.629-1.63zm-10.429-.652c-.9 0-1.629.73-1.629 1.63h.651c0-.54.438-.978.978-.978z"
     id="path272" />
  <path
     fill="#1A1A1A"
     fill-rule="evenodd"
     d="M530.914 184.022h-2.638a1.63 1.63 0 0 0 0 3.259h1.629v.326h-1.629a1.955 1.955 0 1 1 0-3.911h2.638l-1.009-1.059.233-.244 1.397 1.466-1.397 1.467-.233-.245z"
     clip-rule="evenodd"
     id="path274" />
  <path
     fill="#E8E8E8"
     d="M523.714 178.808h10.429v-.652h-10.429zm11.406.978v10.428h.652v-10.428zm-.977 11.406h-10.429v.652h10.429zm-11.407-.978v-10.428h-.652v10.428zm.978.978a.98.98 0 0 1-.978-.978h-.652c0 .9.73 1.63 1.63 1.63zm11.406-.978c0 .54-.437.978-.977.978v.652a1.63 1.63 0 0 0 1.629-1.63zm-.977-11.406c.54 0 .977.438.977.978h.652c0-.9-.73-1.63-1.629-1.63zm-10.429-.652c-.9 0-1.63.73-1.63 1.63h.652c0-.54.438-.978.978-.978z"
     id="path276" />
  <path
     fill="#1A1A1A"
     fill-rule="evenodd"
     d="m545.83 186.002 1.675 1.674-.257.257-1.674-1.674a2.383 2.383 0 1 1 .256-.257m-1.808.465a2.017 2.017 0 1 0-.001-4.033 2.017 2.017 0 0 0 .001 4.033"
     clip-rule="evenodd"
     id="path278" />
  <path
     fill="#E8E8E8"
     d="M539.358 178.808h10.429v-.652h-10.429zm11.407.978v10.428h.652v-10.428zm-.978 11.406h-10.429v.652h10.429zm-11.406-.978v-10.428h-.652v10.428zm.977.978a.977.977 0 0 1-.977-.978h-.652c0 .9.729 1.63 1.629 1.63zm11.407-.978c0 .54-.438.978-.978.978v.652c.9 0 1.63-.73 1.63-1.63zm-.978-11.406c.54 0 .978.438.978.978h.652c0-.9-.73-1.63-1.63-1.63zm-10.429-.652c-.9 0-1.629.73-1.629 1.63h.652c0-.54.437-.978.977-.978z"
     id="path280" />
  <text
     xml:space="preserve"
     style="font-size:14.6667px;line-height:1.25;font-family:'Agency FB';-inkscape-font-specification:'Agency FB';letter-spacing:0.19px;mix-blend-mode:normal;fill:url(#linearGradient13341);fill-opacity:1;filter:url(#filter9641)"
     x="131.88406"
     y="161.59419"
     id="text7263"><tspan
       sodipodi:role="line"
       id="tspan7261"
       x="131.88406"
       y="161.59419"
       style="opacity:1;fill:url(#linearGradient13341);fill-opacity:1;fill-rule:nonzero" /></text>
  <text
     xml:space="preserve"
     style="font-size:14.6667px;line-height:1.25;font-family:'Agency FB';-inkscape-font-specification:'Agency FB';letter-spacing:0.19px"
     x="26.086958"
     y="245.65218"
     id="text16185"><tspan
       sodipodi:role="line"
       id="tspan16183"
       x="26.086958"
       y="245.65218"
       style="fill:#0e0014;fill-opacity:1" /></text>
  <text
     xml:space="preserve"
     style="font-size:14.6666px;line-height:1.25;font-family:'Agency FB';-inkscape-font-specification:'Agency FB';letter-spacing:0.189999px;stroke-width:0.999995"
     x="121.7686"
     y="168.52612"
     id="text19277"><tspan
       sodipodi:role="line"
       id="tspan19275"
       x="121.7686"
       y="168.52612"
       style="font-style:normal;font-variant:normal;font-weight:normal;font-stretch:normal;font-size:14.6666px;font-family:'Gloucester MT Extra Condensed';-inkscape-font-specification:'Gloucester MT Extra Condensed, ';font-variant-ligatures:normal;font-variant-caps:normal;font-variant-numeric:normal;font-variant-east-asian:normal;fill:#050505;fill-opacity:0.993103;stroke-width:0.999995">PDF TOOLZ</tspan></text>
  <path
     fill="#ff5975"
     fill-rule="evenodd"
     d="m 308.46007,489.93847 a 1.7638779,1.7638779 0 1 1 2.495,-2.494 l 3.742,3.742 a 1.7638779,1.7638779 0 1 1 -2.495,2.494 z m 8.731,8.731 a 1.764,1.764 0 0 1 2.494,-2.495 l 3.742,3.742 a 1.764,1.764 0 0 1 -2.494,2.495 z m -8.731,3.742 a 1.766,1.766 0 0 0 2.495,0 l 3.742,-3.742 a 1.7642314,1.7642314 0 1 0 -2.495,-2.495 l -3.742,3.742 a 1.764,1.764 0 0 0 0,2.495 m 11.222,-8.729 a 1.7642314,1.7642314 0 1 1 -2.495,-2.495 l 3.742,-3.742 a 1.7642314,1.7642314 0 1 1 2.495,2.495 z"
     clip-rule="evenodd"
     id="path156-6" />
</svg>
